<svg width="603" height="555" viewBox="0 0 603 555" fill="none" xmlns="http://www.w3.org/2000/svg">
<g clip-path="url(#clip0_819_2)">
<path d="M613.919 535.345C613.919 539.847 480.559 543.51 316.056 543.51C151.553 543.51 18.2075 539.847 18.2075 535.345C18.2075 530.842 151.567 527.166 316.056 527.166C480.545 527.166 613.919 530.829 613.919 535.345Z" fill="#F5F5F5"/>
<path d="M509.821 197.776C508.329 197.512 506.793 197.554 505.32 197.901C503.847 198.247 502.473 198.888 501.292 199.78C500.111 200.673 499.152 201.794 498.482 203.067C497.812 204.34 497.446 205.734 497.411 207.152C497.375 208.571 497.67 209.979 498.276 211.28C498.881 212.581 499.783 213.743 500.917 214.686C502.052 215.629 503.393 216.33 504.847 216.741C506.301 217.151 507.833 217.261 509.336 217.063L534.234 256.264C532.923 257.303 532.008 258.71 531.625 260.276C531.242 261.841 531.412 263.481 532.11 264.948C532.777 266.696 533.995 268.214 535.604 269.303C537.212 270.392 539.136 271.001 541.122 271.049C543.085 271.035 544.994 270.445 546.578 269.363C548.162 268.28 549.341 266.759 549.949 265.015C551.48 265.282 553.056 265.227 554.562 264.854C556.067 264.48 557.465 263.797 558.652 262.855C559.839 261.912 560.786 260.734 561.424 259.407C562.061 258.079 562.374 256.635 562.338 255.18C562.302 253.725 561.919 252.296 561.217 250.997C560.514 249.698 559.511 248.562 558.278 247.672C557.046 246.781 555.617 246.159 554.094 245.85C552.572 245.542 550.995 245.554 549.478 245.887L525.365 207.992C528.316 205.847 528.944 201.159 527.66 197.855C526.993 196.108 525.775 194.589 524.167 193.5C522.558 192.412 520.634 191.803 518.648 191.755C516.688 191.771 514.782 192.361 513.199 193.441C511.616 194.521 510.435 196.036 509.821 197.776Z" fill="#FDC500"/>
<path d="M62.8984 531.948L68.032 423.869L81.7644 415.291H113.422L127.753 424.189L131.846 532.84L62.8984 531.948Z" fill="#FDC500"/>
<path d="M112.557 472.395C120.503 464.972 120.503 452.937 112.557 445.514C104.61 438.091 91.7256 438.091 83.7788 445.514C75.832 452.937 75.8321 464.972 83.7788 472.395C91.7256 479.817 104.61 479.817 112.557 472.395Z" fill="white"/>
<path d="M113.422 415.291H81.7644L82.9337 396.537C82.9845 395.756 83.3519 395.022 83.9612 394.485C84.5705 393.948 85.3759 393.648 86.2135 393.646H108.73C109.56 393.644 110.359 393.936 110.968 394.462C111.576 394.989 111.949 395.711 112.01 396.484L113.422 415.291Z" fill="#FDC500"/>
<path d="M112.438 402.012H82.5488V403.344H112.438V402.012Z" fill="#263238"/>
<path d="M92.0317 402.997C92.2344 404.385 92.9753 405.654 94.1138 406.565C95.2524 407.476 96.7093 407.964 98.208 407.938C99.7067 407.912 101.143 407.372 102.244 406.422C103.345 405.472 104.034 404.178 104.181 402.784L92.0317 402.997Z" fill="#263238"/>
<path opacity="0.3" d="M68.032 423.869L127.753 424.189L113.436 415.291H81.7644L68.032 423.869Z" fill="black"/>
<path d="M101.6 458.301C99.8461 457.436 98.8194 457.209 97.4932 457.742C96.2073 458.394 95.092 459.303 94.2277 460.406L90.9336 463.936C89.7797 464.897 89.0145 466.2 88.7661 467.625C88.8083 468.335 89.0526 469.022 89.4737 469.614C89.8948 470.207 90.4776 470.684 91.1618 470.995C92.5454 471.598 94.0785 471.837 95.5967 471.688C97.1082 471.608 98.6198 471.355 100.131 471.302C101.838 471.375 103.548 471.348 105.251 471.222C106.101 471.153 106.918 470.878 107.62 470.425C108.323 469.972 108.887 469.356 109.258 468.638C110.042 466.733 108.702 464.642 107.304 463.097C105.728 461.19 103.795 459.565 101.6 458.301Z" fill="#FDC500"/>
<path d="M112.338 456.463C112.024 455.131 111.154 452.787 109.885 452.667C108.989 452.774 108.17 453.193 107.589 453.839C106.419 455.242 105.827 456.991 105.921 458.768C105.97 459.224 106.123 459.666 106.369 460.063C106.614 460.46 106.948 460.804 107.347 461.072C108.004 461.402 108.761 461.514 109.495 461.388C110.229 461.262 110.894 460.906 111.382 460.379C111.855 459.84 112.188 459.206 112.354 458.526C112.519 457.847 112.514 457.14 112.338 456.463Z" fill="#FDC500"/>
<path d="M91.2474 460.126C91.0772 459.036 90.5491 458.021 89.7358 457.223C89.0426 456.531 88.2942 455.89 87.497 455.305C87.1561 455.025 86.7176 454.87 86.2635 454.87C85.8095 454.87 85.371 455.025 85.03 455.305C84.8492 455.472 84.6912 455.66 84.5595 455.864C84.1328 456.568 83.9023 457.36 83.8892 458.168C83.8098 459.232 84.0106 460.298 84.4739 461.272C84.9438 462.249 85.7958 463.021 86.8553 463.43C87.3861 463.629 87.9629 463.697 88.53 463.627C89.0971 463.557 89.6353 463.351 90.0923 463.03C90.5263 462.673 90.8589 462.22 91.0604 461.714C91.262 461.207 91.3262 460.662 91.2474 460.126Z" fill="#FDC500"/>
<path d="M94.6983 446.207C93.6978 446.378 92.7539 446.764 91.9417 447.336C91.1295 447.908 90.4714 448.649 90.0199 449.5C89.5685 450.351 89.336 451.289 89.3411 452.239C89.3463 453.189 89.5888 454.125 90.0495 454.972C90.3224 455.574 90.7703 456.092 91.3423 456.469C91.9144 456.845 92.5878 457.065 93.2865 457.103C93.8263 457.067 94.3479 456.906 94.8038 456.634C95.2597 456.362 95.6352 455.987 95.8961 455.544C96.4025 454.672 96.6811 453.7 96.7089 452.707C96.8078 451.065 96.5954 449.419 96.0815 447.845C95.8676 447.206 95.5111 446.513 94.8266 446.354" fill="#FDC500"/>
<path d="M101.201 446.594C100.817 446.413 100.378 446.361 99.9577 446.446C99.5374 446.531 99.1608 446.747 98.8907 447.06C98.5452 447.562 98.3529 448.142 98.3346 448.738C98.1349 449.957 98.1349 451.196 98.3346 452.415C98.5567 453.643 99.2329 454.76 100.245 455.571C100.758 455.963 101.375 456.218 102.03 456.309C102.685 456.401 103.354 456.325 103.967 456.091C104.575 455.776 105.081 455.314 105.432 454.754C105.783 454.194 105.967 453.556 105.964 452.907C105.937 451.602 105.523 450.329 104.766 449.231C103.946 448.073 102.759 447.184 101.372 446.687" fill="#FDC500"/>
<path d="M115.86 490.216H80.4954C80.0815 490.214 79.6721 490.137 79.2905 489.987C78.9088 489.837 78.5624 489.619 78.2711 489.345C77.9798 489.07 77.7493 488.745 77.5926 488.387C77.436 488.029 77.3563 487.646 77.3582 487.259C77.3582 486.871 77.4402 486.488 77.5994 486.13C77.7587 485.772 77.9921 485.446 78.2863 485.173C78.5804 484.899 78.9295 484.683 79.3135 484.536C79.6975 484.389 80.1089 484.314 80.5239 484.315H115.86C116.696 484.315 117.498 484.626 118.089 485.178C118.68 485.73 119.012 486.478 119.012 487.259C119.014 487.647 118.933 488.031 118.776 488.39C118.618 488.748 118.386 489.075 118.094 489.349C117.801 489.624 117.453 489.842 117.069 489.991C116.686 490.14 116.275 490.216 115.86 490.216Z" fill="white"/>
<path opacity="0.3" d="M131.632 527.166L63.1694 526.167L64.3815 500.899L130.762 501.366L131.632 527.166Z" fill="white"/>
<path d="M477.594 104.829L477.765 93.2801L490.342 67.3061L484.339 58.3018L482.97 60.9258L485.936 67.386L480.731 72.6607L470.934 73.087L462.378 87.033L470.193 93.3067L470.421 102.831L477.594 104.829Z" fill="#263238"/>
<path opacity="0.2" d="M477.594 104.829L477.765 93.2801L490.342 67.3061L484.339 58.3018L482.97 60.9258L485.936 67.386L480.731 72.6607L470.934 73.087L462.378 87.033L470.193 93.3067L470.421 102.831L477.594 104.829Z" fill="white"/>
<path d="M449.045 91.6284L458.77 84.4756L473.159 59.3407L484.467 58.3018L483.055 60.9125L475.768 62.6574L474.471 69.7303L480.075 77.2295L473.444 92.068L463.348 90.0966L455.12 95.731L449.045 91.6284Z" fill="#263238"/>
<path opacity="0.3" d="M449.045 91.6284L458.77 84.4756L473.159 59.3407L484.467 58.3018L483.055 60.9125L475.768 62.6574L474.471 69.7303L480.075 77.2295L473.444 92.068L463.348 90.0966L455.12 95.731L449.045 91.6284Z" fill="white"/>
<path opacity="0.3" d="M476.353 79.4009C476.364 80.0465 476.17 80.6805 475.794 81.2222C475.418 81.764 474.877 82.1888 474.242 82.4426C473.606 82.6964 472.904 82.7676 472.225 82.6472C471.546 82.5268 470.921 82.2202 470.429 81.7666C469.937 81.3129 469.601 80.7327 469.464 80.0999C469.327 79.4672 469.394 78.8106 469.658 78.2138C469.922 77.617 470.37 77.1072 470.945 76.7493C471.52 76.3914 472.197 76.2016 472.888 76.2041C473.799 76.2041 474.674 76.5396 475.323 77.138C475.972 77.7364 476.342 78.5494 476.353 79.4009Z" fill="white"/>
<path d="M451.512 87.2998L429.737 100.18L392.861 140.26C392.149 141.032 391.61 141.928 391.275 142.898C390.941 143.867 390.818 144.889 390.913 145.904C391.009 146.918 391.322 147.905 391.832 148.805C392.343 149.704 393.042 150.499 393.887 151.143C395.539 152.416 397.659 153.034 399.793 152.862C401.926 152.69 403.902 151.742 405.295 150.223L445.124 107.093L456.289 100.1L459.412 94.4926L451.512 87.2998Z" fill="#FDC500"/>
<path d="M478.906 99.3136L479.804 123.356L465.116 174.385C464.831 175.367 464.338 176.286 463.667 177.087C462.996 177.889 462.161 178.557 461.21 179.053C460.259 179.55 459.212 179.864 458.129 179.977C457.047 180.09 455.951 180.001 454.906 179.713C452.858 179.146 451.128 177.853 450.087 176.111C449.045 174.369 448.774 172.316 449.331 170.389L465.017 115.364L464.917 102.817L468.125 97.249L478.906 99.3136Z" fill="#FDC500"/>
<path d="M100.602 204.436H87.24V244.928H100.602V204.436Z" fill="#FDC500"/>
<path d="M72.2385 218.449V230.93H115.589V218.449H72.2385Z" fill="#FDC500"/>
<g opacity="0.5">
<path d="M100.602 204.436H87.24V244.928H100.602V204.436Z" fill="white"/>
<path d="M72.2385 218.448V230.929H115.589V218.448H72.2385Z" fill="white"/>
</g>
<path d="M53.6151 232.808H45.6152V257.05H53.6151V232.808Z" fill="#FDC500"/>
<path d="M36.6313 241.199V248.672H62.5845V241.199H36.6313Z" fill="#FDC500"/>
<g opacity="0.5">
<path d="M53.6151 232.808H45.6152V257.05H53.6151V232.808Z" fill="white"/>
<path d="M36.6313 241.199V248.672H62.5845V241.199H36.6313Z" fill="white"/>
</g>
<path d="M323.029 13.1074H307.272V60.8596H323.029V13.1074Z" fill="#FDC500"/>
<path d="M289.589 29.6378V44.3564H340.711V29.6378L289.589 29.6378Z" fill="#FDC500"/>
<g opacity="0.5">
<path d="M323.029 13.1074H307.272V60.8596H323.029V13.1074Z" fill="white"/>
<path d="M289.589 29.6378V44.3564H340.711V29.6378L289.589 29.6378Z" fill="white"/>
</g>
<path d="M537.4 110.557H525.208V147.506H537.4V110.557Z" fill="#FDC500"/>
<path d="M511.518 123.344V134.732H551.075V123.344H511.518Z" fill="#FDC500"/>
<g opacity="0.5">
<path d="M537.4 110.557H525.208V147.506H537.4V110.557Z" fill="white"/>
<path d="M511.518 123.344V134.732H551.075V123.344H511.518Z" fill="white"/>
</g>
<path d="M467.811 265.975H459.64V290.723H467.811V265.975Z" fill="#FDC500"/>
<path d="M450.471 274.526V282.158H476.966V274.526H450.471Z" fill="#FDC500"/>
<g opacity="0.5">
<path d="M467.811 265.975H459.64V290.723H467.811V265.975Z" fill="white"/>
<path d="M450.471 274.526V282.158H476.966V274.526H450.471Z" fill="white"/>
</g>
<path d="M374.237 57.2363H366.237V81.4787H374.237V57.2363Z" fill="#FDC500"/>
<path d="M357.253 65.628V73.1006H383.206V65.628H357.253Z" fill="#FDC500"/>
<g opacity="0.5">
<path d="M374.237 57.2363H366.237V81.4787H374.237V57.2363Z" fill="white"/>
<path d="M357.253 65.628V73.1006H383.206V65.628H357.253Z" fill="white"/>
</g>
<path d="M50.8486 364.063L18.8919 292.694C18.4465 291.71 18.2134 290.653 18.206 289.584C18.1986 288.515 18.4171 287.455 18.849 286.465C19.2808 285.475 19.9175 284.575 20.7226 283.815C21.5277 283.055 22.4853 282.452 23.5407 282.038L24.2965 281.745L63.3261 368.791C62.1748 369.249 60.938 369.49 59.6868 369.5C58.4356 369.51 57.1946 369.289 56.0351 368.85C54.8756 368.41 53.8205 367.761 52.9305 366.94C52.0404 366.118 51.3329 365.14 50.8486 364.063Z" fill="#FDC500"/>
<path d="M41.0093 278.375L24.4391 284.862L23.2271 282.198L36.9309 276.87C37.6932 276.573 38.5502 276.571 39.3145 276.863C40.0788 277.155 40.6882 277.718 41.0093 278.428V278.375Z" fill="#FDC500"/>
<path d="M41.4654 283.184L26.3355 289.098L25.1377 286.434L40.2818 280.493C40.664 280.347 41.0925 280.347 41.4743 280.495C41.856 280.642 42.1603 280.924 42.321 281.279C42.4766 281.638 42.474 282.039 42.3137 282.396C42.1534 282.753 41.8484 283.036 41.4654 283.184Z" fill="#FDC500"/>
<path d="M43.4618 287.632L28.332 293.546L27.1199 290.882L42.264 284.955C42.6462 284.809 43.0747 284.809 43.4565 284.956C43.8382 285.104 44.1425 285.385 44.3032 285.741C44.4552 286.096 44.4523 286.493 44.2951 286.847C44.1379 287.2 43.8388 287.482 43.4618 287.632Z" fill="#FDC500"/>
<path d="M45.4584 292.081L30.3 297.996L29.0879 295.332L44.232 289.404C44.6142 289.258 45.0427 289.259 45.4245 289.406C45.8062 289.553 46.1105 289.835 46.2712 290.19C46.4288 290.542 46.4319 290.937 46.2798 291.291C46.1277 291.645 45.8326 291.929 45.4584 292.081Z" fill="#FDC500"/>
<path d="M47.412 296.531L32.2822 302.458L31.0701 299.794L46.2142 293.88C46.4024 293.805 46.6044 293.766 46.8088 293.765C47.0132 293.763 47.2159 293.799 47.4053 293.871C47.5947 293.943 47.7671 294.049 47.9127 294.183C48.0582 294.317 48.174 294.477 48.2534 294.652C48.4049 295.006 48.4015 295.401 48.2442 295.752C48.0868 296.104 47.7879 296.383 47.412 296.531Z" fill="#FDC500"/>
<path d="M49.4511 300.979L34.3212 306.906L33.1091 304.242L48.2532 298.328C48.4414 298.254 48.6435 298.214 48.8479 298.213C49.0523 298.211 49.255 298.248 49.4444 298.319C49.6338 298.391 49.8062 298.497 49.9517 298.631C50.0972 298.765 50.213 298.925 50.2924 299.101C50.4439 299.454 50.4406 299.849 50.2832 300.201C50.1259 300.552 49.827 300.831 49.4511 300.979Z" fill="#FDC500"/>
<path d="M51.4474 305.428L36.3176 311.356L35.1055 308.692L50.2638 302.751C50.452 302.676 50.6541 302.637 50.8585 302.636C51.0629 302.634 51.2656 302.67 51.455 302.742C51.6444 302.814 51.8168 302.92 51.9623 303.054C52.1078 303.188 52.2236 303.348 52.303 303.524C52.382 303.701 52.4225 303.891 52.4222 304.083C52.4219 304.276 52.3808 304.466 52.3012 304.643C52.2216 304.82 52.1051 304.981 51.9586 305.116C51.812 305.25 51.6383 305.357 51.4474 305.428Z" fill="#FDC500"/>
<path d="M53.444 309.89L38.3141 315.804L37.1021 313.14L52.2462 307.226C52.6284 307.08 53.0569 307.081 53.4386 307.228C53.8204 307.375 54.1247 307.657 54.2853 308.012C54.4331 308.366 54.4279 308.76 54.2709 309.11C54.114 309.46 53.8175 309.74 53.444 309.89Z" fill="#FDC500"/>
<path d="M55.4403 314.339L40.2819 320.253L39.0698 317.589L54.1997 311.662C54.5839 311.515 55.0144 311.515 55.3985 311.662C55.7826 311.809 56.0895 312.091 56.2531 312.447C56.407 312.8 56.4082 313.194 56.2565 313.547C56.1048 313.9 55.8121 314.184 55.4403 314.339Z" fill="#FDC500"/>
<path d="M57.394 318.788L42.2641 324.702L41.052 322.038L56.1819 316.11C56.3709 316.036 56.5738 315.998 56.7788 315.997C56.9839 315.996 57.187 316.034 57.3766 316.107C57.5661 316.18 57.7383 316.287 57.8832 316.423C58.0282 316.558 58.143 316.719 58.221 316.896C58.3006 317.071 58.3423 317.259 58.3437 317.449C58.3452 317.639 58.3063 317.827 58.2294 318.003C58.1525 318.179 58.0391 318.339 57.8957 318.473C57.7523 318.608 57.5818 318.715 57.394 318.788Z" fill="#FDC500"/>
<path d="M59.433 323.236L44.3032 329.151L43.0911 326.487L58.2209 320.559C58.594 320.41 59.0147 320.403 59.3931 320.54C59.7714 320.677 60.0775 320.947 60.2458 321.292C60.3349 321.469 60.3844 321.66 60.3915 321.856C60.3985 322.051 60.3629 322.245 60.2869 322.427C60.2108 322.609 60.0959 322.775 59.9491 322.914C59.8023 323.053 59.6267 323.163 59.433 323.236Z" fill="#FDC500"/>
<path d="M61.4296 327.685L46.2997 333.613L45.0876 330.949L60.246 325.008C60.4339 324.932 60.6363 324.891 60.8412 324.889C61.0461 324.886 61.2495 324.922 61.4394 324.994C61.6293 325.066 61.802 325.173 61.9472 325.308C62.0924 325.443 62.2074 325.604 62.2852 325.781C62.3642 325.958 62.4047 326.148 62.4044 326.341C62.4041 326.533 62.3629 326.723 62.2833 326.9C62.2038 327.077 62.0873 327.238 61.9408 327.373C61.7942 327.508 61.6205 327.614 61.4296 327.685Z" fill="#FDC500"/>
<path d="M63.4259 332.135L48.2961 338.062L47.084 335.398L62.2138 329.484C62.402 329.41 62.6041 329.371 62.8085 329.369C63.0129 329.368 63.2156 329.404 63.405 329.476C63.5944 329.547 63.7668 329.653 63.9123 329.787C64.0578 329.921 64.1736 330.081 64.253 330.257C64.4054 330.609 64.4041 331.003 64.2495 331.354C64.0949 331.705 63.7993 331.985 63.4259 332.135Z" fill="#FDC500"/>
<path d="M65.4224 336.583L50.264 342.511L49.0662 339.847L64.196 333.932C64.5765 333.786 65.0035 333.784 65.385 333.929C65.7665 334.073 66.0718 334.352 66.2352 334.705C66.3884 335.055 66.3892 335.448 66.2374 335.798C66.0856 336.149 65.7931 336.431 65.4224 336.583Z" fill="#FDC500"/>
<path d="M67.3759 341.046L52.2318 346.96L51.0339 344.296L66.1638 338.382C66.3528 338.308 66.5557 338.269 66.7608 338.269C66.9658 338.268 67.169 338.305 67.3585 338.378C67.548 338.451 67.7202 338.559 67.8652 338.694C68.0101 338.83 68.1249 338.991 68.203 339.168C68.3553 339.52 68.3541 339.913 68.1995 340.264C68.0449 340.615 67.7492 340.896 67.3759 341.046Z" fill="#FDC500"/>
<path d="M69.4152 345.495L54.2711 351.409L53.0732 348.745L68.2031 342.817C68.3921 342.743 68.595 342.705 68.8001 342.704C69.0051 342.704 69.2083 342.741 69.3978 342.814C69.5873 342.887 69.7596 342.994 69.9045 343.13C70.0494 343.265 70.1642 343.426 70.2423 343.603C70.399 343.957 70.4001 344.354 70.2452 344.708C70.0903 345.062 69.792 345.345 69.4152 345.495Z" fill="#FDC500"/>
<path d="M71.4115 349.944L56.2674 355.924L55.0696 353.26L70.228 347.253C70.417 347.179 70.6199 347.14 70.8249 347.14C71.03 347.139 71.2331 347.176 71.4227 347.249C71.6122 347.322 71.7844 347.43 71.9293 347.565C72.0743 347.701 72.1891 347.862 72.2671 348.039C72.3461 348.216 72.3866 348.407 72.3863 348.599C72.386 348.791 72.3449 348.981 72.2653 349.158C72.1857 349.335 72.0692 349.496 71.9227 349.631C71.7761 349.766 71.6024 349.872 71.4115 349.944Z" fill="#FDC500"/>
<path d="M73.4079 354.393L58.2638 360.32L57.0659 357.656L72.1958 351.729C72.3848 351.654 72.5877 351.616 72.7928 351.615C72.9978 351.615 73.2009 351.652 73.3905 351.725C73.58 351.798 73.7522 351.905 73.8972 352.041C74.0421 352.176 74.1569 352.337 74.235 352.514C74.3836 352.867 74.3805 353.259 74.2263 353.609C74.0721 353.959 73.7788 354.24 73.4079 354.393Z" fill="#FDC500"/>
<path d="M75.4043 358.841L60.2459 364.769L59.0481 362.105L74.1779 356.191C74.3659 356.114 74.5682 356.074 74.7731 356.071C74.9781 356.069 75.1814 356.105 75.3714 356.177C75.5613 356.249 75.7339 356.355 75.8791 356.49C76.0244 356.625 76.1393 356.786 76.2171 356.963C76.3666 357.314 76.3656 357.705 76.2142 358.055C76.0628 358.405 75.7727 358.686 75.4043 358.841Z" fill="#FDC500"/>
<path d="M75.932 363.917L62.2281 369.245L61.0303 366.581L77.6004 360.094C77.9186 360.808 77.9217 361.61 77.6092 362.326C77.2967 363.042 76.6938 363.614 75.932 363.917Z" fill="#FDC500"/>
<path d="M159.538 65.4284C159.296 64.7491 63.0409 110.184 63.0409 110.184C61.2474 107.983 58.6451 106.482 55.736 105.968C52.827 105.454 49.8173 105.965 47.2875 107.401C44.7578 108.838 42.8874 111.099 42.037 113.748C41.1866 116.397 41.4166 119.246 42.6825 121.746C43.9484 124.246 46.1606 126.219 48.8924 127.286C51.6241 128.352 54.6817 128.435 57.4755 127.52C60.2692 126.604 62.601 124.755 64.0211 122.329C65.4412 119.902 65.8489 117.07 65.1656 114.379C68.474 112.741 93.6001 100.527 100.816 104.549C100.83 104.589 161.72 71.4491 159.538 65.4284ZM58.6631 123.73C57.2379 124.673 55.5453 125.2 53.7994 125.244C52.0536 125.288 50.333 124.847 48.8554 123.977C47.3778 123.108 46.2096 121.848 45.4987 120.358C44.7878 118.868 44.5661 117.214 44.8616 115.606C45.1571 113.999 45.9566 112.509 47.159 111.326C48.3613 110.142 49.9123 109.319 51.6159 108.959C53.3194 108.6 55.0988 108.72 56.729 109.306C58.3591 109.891 59.7667 110.915 60.7736 112.248C61.4429 113.131 61.9193 114.129 62.1755 115.184C62.4317 116.239 62.4627 117.331 62.2667 118.398C62.0707 119.464 61.6515 120.484 61.0332 121.399C60.4148 122.314 59.6094 123.106 58.6631 123.73Z" fill="#263238"/>
<g opacity="0.2">
<path d="M159.538 65.4284C159.296 64.7491 63.0409 110.184 63.0409 110.184C61.2474 107.983 58.6451 106.482 55.736 105.968C52.827 105.454 49.8173 105.965 47.2875 107.401C44.7578 108.838 42.8874 111.099 42.037 113.748C41.1866 116.397 41.4166 119.246 42.6825 121.746C43.9484 124.246 46.1606 126.219 48.8924 127.286C51.6241 128.352 54.6817 128.435 57.4755 127.52C60.2692 126.604 62.601 124.755 64.0211 122.329C65.4412 119.902 65.8489 117.07 65.1656 114.379C68.474 112.741 93.6001 100.527 100.816 104.549C100.83 104.589 161.72 71.4491 159.538 65.4284ZM58.6631 123.73C57.2379 124.673 55.5453 125.2 53.7994 125.244C52.0536 125.288 50.333 124.847 48.8554 123.977C47.3778 123.108 46.2096 121.848 45.4987 120.358C44.7878 118.868 44.5661 117.214 44.8616 115.606C45.1571 113.999 45.9566 112.509 47.159 111.326C48.3613 110.142 49.9123 109.319 51.6159 108.959C53.3194 108.6 55.0988 108.72 56.729 109.306C58.3591 109.891 59.7667 110.915 60.7736 112.248C61.4429 113.131 61.9193 114.129 62.1755 115.184C62.4317 116.239 62.4627 117.331 62.2667 118.398C62.0707 119.464 61.6515 120.484 61.0332 121.399C60.4148 122.314 59.6094 123.106 58.6631 123.73Z" fill="white"/>
</g>
<path d="M95.511 98.4884C100.203 104.975 88.5236 129.124 86.955 132.255C84.0479 131.784 81.0572 132.334 78.5586 133.8C76.06 135.265 74.2301 137.543 73.4214 140.193C72.6126 142.843 72.8821 145.679 74.178 148.155C75.4739 150.631 77.7045 152.572 80.4404 153.603C83.1763 154.635 86.2241 154.685 88.9969 153.743C91.7697 152.801 94.0715 150.935 95.4592 148.503C96.8469 146.07 97.2222 143.245 96.5131 140.57C95.8039 137.895 94.0603 135.559 91.618 134.013C91.618 134.013 134.897 41.7852 134.17 41.5721C127.61 39.8804 95.511 98.4884 95.511 98.4884ZM89.5075 136.264C90.9862 137.134 92.1549 138.395 92.8657 139.887C93.5764 141.378 93.7972 143.033 93.5 144.642C93.2028 146.25 92.401 147.741 91.1962 148.923C89.9914 150.106 88.4379 150.928 86.7325 151.285C85.0271 151.642 83.2466 151.518 81.6166 150.929C79.9866 150.34 78.5805 149.312 77.5765 147.976C76.5725 146.64 76.0157 145.055 75.9768 143.423C75.938 141.791 76.4186 140.185 77.358 138.808C78.6146 136.973 80.5964 135.676 82.872 135.199C85.1476 134.723 87.5325 135.106 89.5075 136.264Z" fill="#263238"/>
<path opacity="0.3" d="M95.511 98.4884C100.203 104.975 88.5236 129.124 86.955 132.255C84.0479 131.784 81.0572 132.334 78.5586 133.8C76.06 135.265 74.2301 137.543 73.4214 140.193C72.6126 142.843 72.8821 145.679 74.178 148.155C75.4739 150.631 77.7045 152.572 80.4404 153.603C83.1763 154.635 86.2241 154.685 88.9969 153.743C91.7697 152.801 94.0715 150.935 95.4592 148.503C96.8469 146.07 97.2222 143.245 96.5131 140.57C95.8039 137.895 94.0603 135.559 91.618 134.013C91.618 134.013 134.897 41.7852 134.17 41.5721C127.61 39.8804 95.511 98.4884 95.511 98.4884ZM89.5075 136.264C90.9862 137.134 92.1549 138.395 92.8657 139.887C93.5764 141.378 93.7972 143.033 93.5 144.642C93.2028 146.25 92.401 147.741 91.1962 148.923C89.9914 150.106 88.4379 150.928 86.7325 151.285C85.0271 151.642 83.2466 151.518 81.6166 150.929C79.9866 150.34 78.5805 149.312 77.5765 147.976C76.5725 146.64 76.0157 145.055 75.9768 143.423C75.938 141.791 76.4186 140.185 77.358 138.808C78.6146 136.973 80.5964 135.676 82.872 135.199C85.1476 134.723 87.5325 135.106 89.5075 136.264Z" fill="white"/>
<path d="M104.823 99.5936C104.33 99.9165 103.745 100.096 103.143 100.109C102.541 100.123 101.949 99.9695 101.44 99.6689C100.931 99.3683 100.529 98.9338 100.283 98.4201C100.038 97.9064 99.9613 97.3364 100.062 96.7819C100.163 96.2275 100.437 95.7133 100.85 95.3041C101.264 94.8949 101.797 94.609 102.384 94.4823C102.97 94.3557 103.584 94.3941 104.147 94.5925C104.711 94.791 105.199 95.1407 105.55 95.5976C105.787 95.9032 105.957 96.25 106.049 96.6176C106.14 96.9852 106.153 97.3662 106.085 97.7383C106.017 98.1105 105.871 98.4663 105.654 98.7848C105.437 99.1034 105.155 99.3784 104.823 99.5936Z" fill="#E0E0E0"/>
<g opacity="0.3">
<path d="M285.226 84.0494C284.037 80.1854 281.456 76.8233 277.919 74.5318C274.383 72.2402 270.108 71.1597 265.816 71.473C261.525 71.7863 257.482 73.4741 254.369 76.251C251.257 79.028 249.266 82.7237 248.735 86.7134C247.515 85.8807 246.121 85.2972 244.643 85.0008C243.166 84.7044 241.638 84.7019 240.16 84.9933C238.681 85.2847 237.285 85.8635 236.062 86.6921C234.839 87.5207 233.816 88.5805 233.06 89.8027C232.304 91.0248 231.832 92.3819 231.675 93.7856C231.517 95.1894 231.678 96.6083 232.146 97.9502C232.615 99.2922 233.38 100.527 234.393 101.574C235.406 102.622 236.644 103.458 238.025 104.029L276.014 104.349C279.739 102.395 282.664 99.3423 284.331 95.6686C285.998 91.9949 286.313 87.9082 285.226 84.0494Z" fill="#FDC500"/>
</g>
<path d="M180.971 228.811C163.859 222.79 147.517 192.46 147.574 180.246C147.631 168.032 190.069 84.5551 230.739 101.405C230.739 101.405 198.126 234.818 180.971 228.811Z" fill="#263238"/>
<path d="M430.079 432.913C473.03 457.102 536.915 373.16 475.027 308.518C475.027 308.518 517.607 314.738 526.263 354.538L530.926 337.755C530.926 337.755 561.556 388.984 530.926 422.417L548.908 417.955C548.908 417.955 507.283 502.27 413.595 463.323L430.079 432.913Z" fill="#FDC500"/>
<path d="M204.771 324.342C204.771 324.342 244.813 498.98 243.444 502.084C242.075 505.187 212.842 505.387 217.776 522.064H267.259C267.259 522.064 273.248 516.416 267.259 503.416C263.095 494.545 267.259 413.106 267.259 413.106C267.259 413.106 269.711 374.731 267.472 355.484C266.118 343.749 204.771 324.342 204.771 324.342Z" fill="#FDC500"/>
<path d="M227.587 347.931C227.587 347.931 260.043 499.006 258.674 502.11C257.305 505.213 228.086 505.413 233.006 522.09H282.488C282.488 522.09 288.477 516.442 282.488 503.442C278.324 494.571 282.488 413.132 282.488 413.132C288.778 402.814 291.498 390.931 290.274 379.113C288.848 367.338 227.587 347.931 227.587 347.931Z" fill="#FDC500"/>
<path d="M186.419 275.204C186.419 275.204 182.012 300.712 189.271 321.824L196.843 311.262C198.952 326.059 204.291 340.294 212.529 353.086L215.48 343.682C216.108 344.695 216.721 345.667 217.391 346.639C254.966 402.25 278.424 522.037 278.424 522.037H365.824L468.681 427.212C449.615 379.26 414.564 317.655 400.704 304.442C340.697 246.513 295.18 261.671 290.545 180.033L219.787 162.424C219.787 162.424 190.654 205.661 187.445 249.896C183.709 260.71 181.827 272.007 181.87 283.369L186.419 275.204Z" fill="#FDC500"/>
<path d="M143.325 180.379C142.977 185.514 144.167 190.638 146.761 195.177V192.287C149.784 199.65 154.713 206.199 161.107 211.348L158.897 204.182C164.396 208.654 171.078 211.667 178.248 212.906L177.791 210.842L178.661 211.161C215.138 223.149 254.339 225.041 291.971 198.121C321.717 176.809 304.52 139.446 295.95 124.608L303.522 121.664C301.953 107.425 281.276 94.8511 256.72 97.8747C236.642 100.446 226.461 91.8541 226.461 91.8541C226.357 92.9751 226.535 94.1032 226.98 95.1486C227.426 96.1939 228.127 97.1274 229.027 97.8747C220.044 96.9557 213.855 86.8857 213.855 86.8857C212.876 90.1854 212.946 93.6796 214.055 96.9431C215.164 100.207 217.264 103.099 220.101 105.267C216.295 105.994 212.68 107.415 209.463 109.45C194.789 119.919 191.224 132.973 187.645 137.009C184.066 141.045 158.398 143.949 143.439 149.463C138.22 151.434 136.794 166.233 143.852 181.298L143.325 180.379Z" fill="#FDC500"/>
<g opacity="0.3">
<path d="M305.846 230.022C305.484 214.708 301.382 199.674 293.853 186.066L277.711 134.118C277.069 167.871 276.456 201.97 283.943 234.991C285.098 240.079 287.322 245.993 292.713 247.258C296.991 248.257 301.497 245.553 303.607 241.93C305.718 238.307 305.946 234.138 305.846 230.022Z" fill="black"/>
</g>
<path d="M299.686 236.749C317.782 233.726 339.77 206.659 341.981 194.618C344.191 182.577 318.623 93.3196 275.344 103.07C275.344 103.07 281.59 239.786 299.686 236.749Z" fill="#263238"/>
<path d="M238.368 132.493C241.933 132.493 244.97 137.115 244.97 142.843C244.97 148.57 241.861 153.206 238.368 153.206C234.874 153.206 231.765 148.584 231.765 142.843C231.765 137.102 234.803 132.493 238.368 132.493Z" fill="#263238"/>
<path d="M200.75 126.473C203.502 127.178 204.885 131.654 203.873 136.423C202.86 141.191 199.88 144.521 197.071 143.855C194.261 143.189 192.878 138.74 193.905 133.958C194.932 129.176 197.998 125.767 200.75 126.473Z" fill="#263238"/>
<path d="M148.53 167.778C148.53 167.778 137.578 154.458 143.553 151.367C147.063 150.285 150.839 150.208 154.396 151.146C157.954 152.083 161.13 153.993 163.517 156.629C166.839 163.422 148.53 167.778 148.53 167.778Z" fill="#263238"/>
<path opacity="0.3" d="M303.835 367.338C304.665 377.197 303.832 387.117 301.368 396.735L296.834 391.407C296.322 396.243 294.776 400.933 292.287 405.201C289.798 409.468 286.418 413.225 282.345 416.249L281.689 434.897C276.649 437.802 272.566 441.952 269.891 446.888C267.216 451.824 266.053 457.355 266.531 462.869C268.114 476.988 282.602 485.766 282.602 485.766L284.028 506.692C284.028 506.692 288.192 516.722 282.602 521.97H344.02L360.376 434.884C343.214 423.754 322.257 418.935 301.525 421.35C301.525 421.35 316.812 394.404 303.835 367.338Z" fill="black"/>
<path d="M464.817 418.154L346.573 396.735L360.063 434.95C351.239 431.741 341.925 429.862 332.47 429.383C311.45 427.798 284.927 429.383 272.692 447.311L276.856 444.647C273.679 447.815 271.657 451.841 271.081 456.148C270.505 460.456 271.403 464.822 273.647 468.623L274.275 465.786C282.602 491.374 324.47 497.861 357.524 498.953C357.524 498.953 311.736 499.499 305.033 511.354C298.331 523.209 315.6 522.01 336.206 522.01H419.456C432.774 522.01 431.434 514.471 431.434 514.471C431.434 514.471 474.1 521.89 480.916 478.187C482.884 466.599 475.797 443.702 464.817 418.154Z" fill="#FDC500"/>
<path d="M148.872 164.115C146.547 188.438 180.828 202.837 202.689 195.524C210.531 193.002 217.737 189.009 223.865 183.789C218.033 189.433 210.911 193.772 203.031 196.483C195.005 199.11 186.317 199.412 178.105 197.349C162.419 193.633 145.706 180.659 148.872 164.049V164.115Z" fill="#263238"/>
<path d="M153.193 180.952C153.121 182.731 152.623 184.472 151.734 186.047C150.846 187.621 149.59 188.989 148.059 190.05C149.517 186.898 151.233 183.857 153.193 180.952Z" fill="#263238"/>
<path d="M225.434 269.264C224.584 277.148 225.467 285.112 228.029 292.667H226.788C227.941 287.162 230.306 281.941 233.733 277.336C234.328 287.248 238.681 296.64 246.011 303.829C238.375 297.53 233.576 288.764 232.578 279.294L233.804 279.56C232.448 281.632 231.279 283.806 230.311 286.06C229.046 289.038 228.119 292.132 227.544 295.291C224.416 286.955 223.688 277.998 225.434 269.317V269.264Z" fill="#263238"/>
<g opacity="0.3">
<path d="M560.558 362.65C558.734 357.218 554.939 352.55 549.827 349.45C544.715 346.35 538.606 345.012 532.551 345.667C540.451 331.867 530.912 312.207 514.598 308.651C498.285 305.094 480.374 318.827 480.987 334.465C466.185 332.906 451.255 344.295 449.929 358.148C432.903 354.005 413.409 365.034 409.431 381.045C404.521 376.789 398.712 373.54 392.378 371.507C386.043 369.474 379.323 368.703 372.65 369.242C365.977 369.782 359.498 371.62 353.632 374.64C347.765 377.659 342.64 381.792 338.587 386.772C328.491 372.24 305.903 366.792 289.547 374.944C289.861 368.691 288.561 362.46 285.756 356.774C282.952 351.089 278.725 346.117 273.432 342.278C268.139 338.438 261.935 335.844 255.343 334.714C248.752 333.584 241.966 333.951 235.558 335.783C233.747 322.463 219.202 311.728 204.857 313.246C190.511 314.765 178.889 328.191 180.301 341.604C173.956 340.096 167.274 340.395 161.113 342.464C154.952 344.533 149.595 348.277 145.732 353.214C141.868 358.151 139.675 364.055 139.434 370.166C139.193 376.277 140.916 382.316 144.38 387.505L546.098 390.782C551.641 388.402 556.12 384.289 558.76 379.152C561.4 374.015 562.036 368.178 560.558 362.65Z" fill="#FDC500"/>
</g>
<g opacity="0.3">
<path d="M195.345 361.744C197.028 368.324 194.39 376.503 190.853 382.403C187.265 388.367 181.438 392.875 174.497 395.057L174.911 396.07C183.267 397.055 191.837 392.314 195.559 385.254C199.281 378.194 200.793 367.472 195.345 361.744Z" fill="black"/>
</g>
<path d="M235.829 123.783C236.468 123.79 237.106 123.83 237.74 123.903C237.655 123.903 237.498 123.903 237.74 123.903L238.154 123.969L239.081 124.156C239.699 124.296 240.309 124.47 240.906 124.675L241.305 124.808L241.476 124.875L242.332 125.261C242.874 125.514 243.387 125.794 243.901 126.087C244.34 126.349 244.764 126.634 245.17 126.94C245.626 127.299 246.068 127.672 246.496 128.072C246.71 128.285 246.938 128.498 247.138 128.724L247.48 129.097C247.48 129.097 247.794 129.484 247.608 129.244C247.903 129.674 248.358 129.985 248.885 130.118C249.413 130.251 249.974 130.196 250.46 129.963C250.944 129.691 251.295 129.254 251.439 128.744C251.583 128.234 251.508 127.692 251.23 127.233C249.421 124.966 247.081 123.116 244.39 121.824C241.699 120.531 238.727 119.83 235.701 119.773C235.134 119.773 234.59 119.984 234.189 120.359C233.787 120.733 233.562 121.242 233.562 121.771C233.562 122.301 233.787 122.81 234.189 123.184C234.59 123.559 235.134 123.769 235.701 123.769L235.829 123.783Z" fill="#263238"/>
<path d="M197.342 120.892C199.26 119.591 201.474 118.721 203.811 118.349C206.148 117.977 208.546 118.113 210.817 118.748C211.353 118.857 211.913 118.771 212.382 118.505C212.851 118.24 213.193 117.817 213.338 117.323C213.482 116.829 213.418 116.302 213.159 115.851C212.9 115.4 212.465 115.059 211.944 114.898C209.121 114.132 206.15 113.968 203.25 114.417C200.35 114.867 197.595 115.919 195.188 117.496C194.728 117.771 194.395 118.196 194.252 118.689C194.11 119.181 194.169 119.706 194.418 120.16C194.706 120.597 195.161 120.915 195.692 121.048C196.222 121.182 196.786 121.122 197.27 120.879L197.342 120.892Z" fill="#263238"/>
<g opacity="0.3">
<path d="M326.409 255.663C324.159 257.995 322.743 260.924 322.358 264.042C321.974 267.161 322.64 270.314 324.264 273.062C325.888 275.81 328.389 278.017 331.419 279.375C334.449 280.733 337.857 281.175 341.168 280.638C342.098 284.572 343.886 288.284 346.42 291.543C348.955 294.802 352.181 297.538 355.899 299.58C363.442 303.469 373.296 303.575 380.44 299.1C387.584 294.624 391.235 285.46 388.112 277.974C384.989 270.489 374.85 265.986 366.964 269.276C369.731 264.774 372.041 259.952 372.355 254.704C372.668 249.456 370.701 244.048 366.266 240.918C361.831 237.788 354.786 237.895 351.179 241.837C351.252 239.314 350.609 236.818 349.314 234.603C348.018 232.387 346.118 230.532 343.805 229.227C341.492 227.921 338.851 227.211 336.149 227.17C333.447 227.128 330.782 227.757 328.424 228.991C326.067 230.225 324.102 232.02 322.73 234.194C321.357 236.369 320.626 238.844 320.611 241.368C320.596 243.892 321.298 246.375 322.644 248.563C323.991 250.751 325.934 252.567 328.277 253.825" fill="#FDC500"/>
</g>
<path d="M549.991 417.036H137.877C135.853 417.036 133.849 416.663 131.978 415.939C130.108 415.216 128.409 414.155 126.977 412.818C125.546 411.481 124.41 409.894 123.636 408.147C122.861 406.4 122.462 404.528 122.462 402.637C122.462 400.746 122.861 398.875 123.636 397.128C124.411 395.382 125.547 393.796 126.978 392.46C128.41 391.124 130.109 390.064 131.979 389.342C133.85 388.62 135.854 388.249 137.877 388.251H549.991C552.014 388.249 554.018 388.62 555.887 389.342C557.757 390.065 559.455 391.124 560.886 392.461C562.316 393.797 563.45 395.383 564.224 397.129C564.997 398.876 565.394 400.747 565.392 402.637C565.394 404.527 564.997 406.399 564.224 408.146C563.451 409.893 562.317 411.48 560.887 412.817C559.456 414.155 557.758 415.215 555.888 415.939C554.019 416.663 552.015 417.036 549.991 417.036Z" fill="#263238"/>
<path d="M140.744 417.036L172.672 509.757C175.003 516.521 179.574 522.419 185.724 526.601C191.875 530.783 199.288 533.033 206.896 533.027H484.481C492.281 533.029 499.87 530.659 506.101 526.276C512.332 521.893 516.867 515.734 519.019 508.731L547.154 417.036H140.744Z" fill="#263238"/>
<path opacity="0.3" d="M140.744 417.036H547.154L542.933 430.809L146.248 433.02L140.744 417.036Z" fill="black"/>
<path opacity="0.3" d="M164.294 325.681C176.83 313.972 176.83 294.987 164.294 283.278C151.759 271.569 131.435 271.569 118.899 283.278C106.364 294.987 106.364 313.972 118.899 325.681C131.435 337.39 151.759 337.39 164.294 325.681Z" fill="#FDC500"/>
<g opacity="0.3">
<path d="M129.649 281.052C124.536 283.003 120.212 286.413 117.295 290.795C114.379 295.177 113.018 300.307 113.407 305.454C113.692 308.372 114.691 311.435 117.143 313.26C119.596 315.085 123.774 315.032 125.443 312.541C125.875 311.779 126.133 310.942 126.202 310.082C126.27 309.223 126.148 308.359 125.842 307.546C125.329 305.894 124.416 304.349 123.888 302.711C123.052 300.118 123.038 297.354 123.848 294.753C124.657 292.153 126.256 289.828 128.452 288.059C129.526 287.347 130.529 286.544 131.446 285.661C131.905 285.217 132.231 284.669 132.391 284.07C132.551 283.472 132.54 282.844 132.359 282.251C132.25 281.967 132.072 281.711 131.84 281.501C131.608 281.291 131.328 281.134 131.021 281.042C130.714 280.949 130.388 280.923 130.069 280.967C129.749 281.01 129.445 281.121 129.179 281.292" fill="white"/>
</g>
<g opacity="0.3">
<path d="M166.44 294.186C168.18 301.005 165.456 309.464 161.806 315.577C158.088 321.753 152.052 326.422 144.865 328.684L145.293 329.737C153.948 330.762 162.818 325.834 166.683 318.535C170.547 311.235 172.087 300.113 166.44 294.186Z" fill="black"/>
</g>
<path opacity="0.3" d="M334.623 361.078C352.351 361.078 366.722 347.654 366.722 331.095C366.722 314.535 352.351 301.111 334.623 301.111C316.895 301.111 302.523 314.535 302.523 331.095C302.523 347.654 316.895 361.078 334.623 361.078Z" fill="white"/>
<g opacity="0.3">
<path d="M322.63 307.665C317.517 309.618 313.195 313.028 310.279 317.41C307.362 321.792 306.001 326.921 306.388 332.068C306.673 334.985 307.671 338.048 310.124 339.873C312.577 341.698 316.769 341.645 318.437 339.154C318.864 338.39 319.118 337.553 319.184 336.694C319.25 335.835 319.127 334.972 318.822 334.159C318.309 332.507 317.396 330.962 316.869 329.324C316.036 326.731 316.024 323.968 316.833 321.368C317.643 318.768 319.24 316.443 321.432 314.672C322.507 313.96 323.509 313.157 324.427 312.274C324.884 311.83 325.211 311.282 325.373 310.684C325.536 310.086 325.529 309.459 325.354 308.864C325.243 308.58 325.064 308.324 324.83 308.114C324.597 307.904 324.316 307.747 324.008 307.655C323.699 307.562 323.373 307.537 323.052 307.58C322.732 307.624 322.427 307.735 322.159 307.905" fill="white"/>
</g>
<g opacity="0.3">
<path d="M359.464 320.799C361.203 327.619 358.465 336.077 354.815 342.191C351.097 348.366 345.062 353.035 337.874 355.298L338.302 356.35C346.958 357.376 355.827 352.447 359.692 345.148C363.556 337.848 365.096 326.726 359.464 320.799Z" fill="black"/>
</g>
<path opacity="0.3" d="M401.7 349.492C408.39 344.066 409.103 334.602 403.294 328.353C397.485 322.104 387.353 321.437 380.663 326.863C373.973 332.29 373.259 341.754 379.068 348.003C384.877 354.252 395.01 354.919 401.7 349.492Z" fill="white"/>
<g opacity="0.3">
<path d="M385.203 326.5C382.645 327.475 380.483 329.18 379.023 331.371C377.563 333.561 376.882 336.127 377.075 338.701C377.094 339.436 377.27 340.16 377.594 340.83C377.917 341.5 378.38 342.103 378.957 342.604C379.253 342.837 379.597 343.014 379.967 343.122C380.337 343.231 380.726 343.269 381.112 343.236C381.499 343.202 381.874 343.097 382.216 342.927C382.559 342.757 382.861 342.525 383.107 342.244C383.32 341.861 383.446 341.441 383.478 341.01C383.51 340.579 383.447 340.147 383.292 339.74C383.049 338.914 382.607 338.155 382.322 337.329C381.906 336.036 381.9 334.659 382.305 333.364C382.71 332.068 383.509 330.91 384.604 330.03C385.138 329.67 385.639 329.269 386.101 328.831C386.332 328.61 386.496 328.335 386.576 328.036C386.656 327.736 386.65 327.422 386.557 327.126C386.503 326.983 386.414 326.854 386.298 326.748C386.181 326.642 386.04 326.563 385.886 326.517C385.731 326.471 385.567 326.458 385.407 326.481C385.246 326.503 385.094 326.56 384.96 326.646" fill="white"/>
</g>
<g opacity="0.3">
<path d="M403.598 333.066C404.468 336.476 403.099 340.699 401.274 343.722C399.419 346.808 396.407 349.142 392.818 350.276L393.017 350.795C395.197 350.982 397.385 350.547 399.295 349.549C401.204 348.55 402.744 347.034 403.712 345.201C405.652 341.591 406.422 336.023 403.598 333.066Z" fill="black"/>
</g>
<path opacity="0.3" d="M389.873 223.703C401.718 220.628 408.652 209.167 405.36 198.102C402.069 187.038 389.798 180.561 377.953 183.636C366.108 186.711 359.174 198.172 362.466 209.237C365.757 220.301 378.028 226.777 389.873 223.703Z" fill="#FDC500"/>
<g opacity="0.3">
<path d="M385.374 185.734C381.579 185.255 377.718 185.909 374.345 187.602C370.972 189.296 368.259 191.943 366.594 195.165C366.071 196.059 365.745 197.041 365.635 198.055C365.525 199.068 365.633 200.092 365.952 201.065C366.75 202.957 369.289 204.262 371.214 203.316C371.753 202.992 372.215 202.568 372.573 202.071C372.931 201.575 373.177 201.015 373.296 200.426C373.595 199.267 373.638 198.068 373.909 196.896C374.368 195.076 375.381 193.418 376.826 192.123C378.27 190.828 380.085 189.95 382.051 189.597C382.959 189.512 383.856 189.351 384.732 189.117C385.171 188.995 385.568 188.769 385.886 188.461C386.203 188.153 386.429 187.773 386.543 187.359C386.686 186.52 385.873 185.561 384.989 185.747" fill="white"/>
</g>
<g opacity="0.3">
<path d="M402.643 205.501C401.217 210.163 396.397 214.359 391.948 216.863C387.43 219.376 382.074 220.235 376.918 219.274L376.818 220.06C379.299 221.688 382.251 222.575 385.283 222.604C388.315 222.632 391.286 221.801 393.802 220.22C398.793 217.063 403.912 210.882 402.643 205.501Z" fill="black"/>
</g>
<path opacity="0.3" d="M410.871 251.907C409.957 253.391 408.593 254.589 406.95 255.348C405.308 256.108 403.461 256.396 401.644 256.176C399.826 255.955 398.12 255.237 396.739 254.11C395.359 252.984 394.367 251.501 393.889 249.849C393.411 248.196 393.468 246.448 394.053 244.826C394.638 243.203 395.725 241.78 397.176 240.734C398.627 239.688 400.378 239.068 402.206 238.952C404.034 238.835 405.859 239.228 407.449 240.079C409.58 241.225 411.137 243.114 411.779 245.332C412.421 247.55 412.094 249.915 410.871 251.907Z" fill="#FDC500"/>
<g opacity="0.3">
<path d="M403.441 240.106C401.86 239.911 400.253 240.185 398.848 240.891C397.443 241.596 396.311 242.696 395.613 244.036C395.395 244.409 395.259 244.819 395.212 245.242C395.166 245.665 395.21 246.093 395.342 246.5C395.418 246.697 395.535 246.879 395.688 247.033C395.84 247.188 396.024 247.312 396.229 247.399C396.434 247.486 396.655 247.534 396.88 247.539C397.104 247.545 397.328 247.509 397.538 247.432C397.765 247.301 397.96 247.126 398.11 246.92C398.26 246.713 398.361 246.479 398.408 246.233C398.536 245.754 398.55 245.248 398.664 244.768C398.847 244.007 399.265 243.313 399.865 242.771C400.466 242.229 401.223 241.863 402.044 241.718C402.425 241.686 402.803 241.619 403.17 241.518C403.354 241.469 403.521 241.376 403.654 241.247C403.787 241.118 403.881 240.959 403.926 240.785C403.926 240.439 403.641 240.04 403.27 240.119" fill="white"/>
</g>
<g opacity="0.3">
<path d="M410.628 248.352C409.78 250.367 408.207 252.043 406.179 253.093C404.29 254.134 402.057 254.49 399.905 254.092V254.412C400.943 255.103 402.184 255.48 403.459 255.492C404.734 255.504 405.982 255.15 407.035 254.479C409.031 253.173 411.127 250.589 410.628 248.352Z" fill="black"/>
</g>
<path opacity="0.3" d="M562.43 329.977C566.416 326.977 567.044 321.527 563.832 317.803C560.62 314.08 554.785 313.493 550.799 316.494C546.812 319.494 546.185 324.944 549.397 328.668C552.608 332.391 558.444 332.977 562.43 329.977Z" fill="#FDC500"/>
<g opacity="0.3">
<path d="M557.221 315.75C555.631 315.554 554.016 315.836 552.608 316.554C551.201 317.272 550.075 318.39 549.392 319.746C549.174 320.117 549.038 320.525 548.992 320.946C548.945 321.367 548.989 321.792 549.121 322.197C549.198 322.395 549.315 322.576 549.467 322.731C549.62 322.886 549.803 323.011 550.008 323.099C550.212 323.187 550.433 323.237 550.658 323.244C550.883 323.251 551.107 323.217 551.317 323.143C551.544 323.009 551.738 322.832 551.885 322.623C552.033 322.414 552.131 322.178 552.173 321.931C552.301 321.451 552.316 320.945 552.43 320.465C552.625 319.708 553.049 319.018 553.65 318.478C554.251 317.937 555.006 317.569 555.824 317.415C556.206 317.39 556.584 317.323 556.95 317.215C557.134 317.166 557.301 317.073 557.434 316.944C557.567 316.816 557.66 316.656 557.706 316.483C557.706 316.136 557.421 315.737 557.05 315.817" fill="white"/>
</g>
<g opacity="0.3">
<path d="M564.408 323.955C563.56 325.97 561.987 327.647 559.959 328.697C558.069 329.738 555.836 330.093 553.685 329.696V330.016C554.723 330.707 555.963 331.084 557.238 331.096C558.513 331.108 559.762 330.754 560.815 330.082C562.811 328.804 564.907 326.219 564.408 323.955Z" fill="black"/>
</g>
<path opacity="0.3" d="M221.875 268.308C222.124 260.036 215.146 253.141 206.289 252.908C197.433 252.676 190.051 259.194 189.802 267.466C189.553 275.739 196.531 282.634 205.388 282.866C214.244 283.099 221.626 276.581 221.875 268.308Z" fill="white"/>
<g opacity="0.3">
<path d="M206.91 254.958C204.174 254.613 201.391 255.084 198.958 256.304C196.525 257.523 194.567 259.43 193.363 261.751C192.986 262.397 192.751 263.107 192.673 263.839C192.594 264.571 192.674 265.31 192.907 266.013C193.031 266.359 193.231 266.678 193.493 266.948C193.755 267.219 194.073 267.437 194.429 267.588C194.784 267.739 195.17 267.821 195.56 267.827C195.951 267.833 196.339 267.765 196.7 267.625C197.089 267.394 197.423 267.09 197.681 266.732C197.938 266.375 198.114 265.971 198.197 265.547C198.411 264.721 198.44 263.842 198.639 263.003C198.959 261.678 199.685 260.468 200.728 259.522C201.771 258.576 203.087 257.934 204.514 257.675C205.17 257.612 205.819 257.496 206.454 257.329C206.768 257.24 207.053 257.077 207.28 256.855C207.508 256.633 207.67 256.361 207.751 256.063C207.866 255.451 207.267 254.731 206.625 254.904" fill="white"/>
</g>
<g opacity="0.3">
<path d="M219.359 269.21C218.304 272.567 214.867 275.604 211.644 277.402C208.388 279.217 204.526 279.838 200.807 279.147L200.721 279.693C202.51 280.868 204.639 281.509 206.826 281.53C209.013 281.551 211.156 280.953 212.971 279.813C216.593 277.548 220.229 273.086 219.359 269.21Z" fill="black"/>
</g>
<path opacity="0.3" d="M233.828 67.2776C236.825 59.4895 232.495 50.9066 224.157 48.1073C215.819 45.308 206.631 49.3522 203.634 57.1404C200.637 64.9286 204.967 73.5115 213.305 76.3108C221.642 79.1101 230.831 75.0658 233.828 67.2776Z" fill="#FDC500"/>
<g opacity="0.3">
<path d="M219.801 49.2701C217.061 48.9272 214.276 49.4006 211.841 50.6227C209.406 51.8448 207.446 53.7534 206.24 56.0766C205.866 56.7212 205.633 57.4288 205.555 58.1583C205.476 58.8878 205.554 59.6246 205.784 60.3257C205.907 60.6728 206.105 60.9925 206.366 61.2648C206.627 61.5372 206.946 61.7564 207.302 61.9089C207.658 62.0613 208.043 62.1437 208.435 62.1509C208.826 62.1581 209.215 62.09 209.577 61.9507C209.968 61.7218 210.304 61.4185 210.562 61.0605C210.82 60.7025 210.994 60.2979 211.074 59.8728C211.302 59.0336 211.331 58.1678 211.516 57.3287C211.837 56.0043 212.564 54.7957 213.607 53.8497C214.65 52.9038 215.964 52.2614 217.391 52.0007C218.048 51.9406 218.697 51.8247 219.331 51.6544C219.658 51.5643 219.953 51.3928 220.184 51.1582C220.415 50.9235 220.574 50.6346 220.642 50.3224C220.742 49.723 220.158 48.9904 219.516 49.1635" fill="white"/>
</g>
<g opacity="0.3">
<path d="M232.25 63.5225C231.18 66.8924 227.744 69.9161 224.521 71.7276C221.263 73.5379 217.401 74.1549 213.683 73.4592L213.598 74.0186C215.389 75.1886 217.517 75.826 219.703 75.8474C221.888 75.8688 224.03 75.2732 225.847 74.1385C229.469 71.8608 233.106 67.4119 232.25 63.5225Z" fill="black"/>
</g>
<g opacity="0.3">
<path d="M341.496 231.622C339.783 230.804 337.881 230.393 335.958 230.425C334.035 230.457 332.15 230.931 330.469 231.805C328.789 232.679 327.365 233.927 326.324 235.438C325.282 236.948 324.655 238.675 324.498 240.466C324.384 241.147 324.419 241.843 324.6 242.512C324.782 243.18 325.106 243.807 325.553 244.356C326.029 244.874 326.7 245.201 327.427 245.27C328.154 245.34 328.882 245.146 329.461 244.729C330.119 243.802 330.462 242.711 330.445 241.598C330.792 239.817 331.785 238.202 333.258 237.026C334.731 235.849 336.593 235.182 338.53 235.138C339.399 235.116 340.266 235.041 341.125 234.912C342.979 234.659 343.592 232.9 341.496 231.622Z" fill="white"/>
</g>
<g opacity="0.3">
<path d="M362.858 243.942C361.146 243.121 359.245 242.707 357.321 242.737C355.398 242.767 353.512 243.239 351.831 244.113C350.149 244.986 348.725 246.233 347.683 247.744C346.642 249.255 346.015 250.982 345.86 252.773C345.747 253.456 345.781 254.153 345.959 254.823C346.138 255.493 346.458 256.123 346.901 256.676C347.379 257.196 348.054 257.523 348.784 257.59C349.515 257.657 350.245 257.459 350.822 257.036C351.485 256.111 351.828 255.018 351.806 253.906C352.156 252.127 353.151 250.515 354.623 249.341C356.096 248.167 357.956 247.502 359.892 247.459C360.756 247.437 361.619 247.361 362.473 247.232C364.341 246.979 364.954 245.221 362.858 243.942Z" fill="white"/>
</g>
<g opacity="0.3">
<path d="M159.353 349.063C154.416 350.949 150.242 354.242 147.426 358.473C144.61 362.704 143.294 367.657 143.667 372.627C143.696 374.041 144.025 375.437 144.638 376.731C145.25 378.026 146.132 379.193 147.232 380.166C149.613 381.937 153.649 381.871 155.26 379.473C155.676 378.737 155.924 377.929 155.988 377.098C156.052 376.268 155.93 375.435 155.631 374.651C155.146 373.053 154.291 371.561 153.749 369.976C152.968 367.482 152.972 364.83 153.761 362.338C154.55 359.846 156.09 357.619 158.198 355.923C159.224 355.236 160.179 354.46 161.05 353.606C161.493 353.178 161.808 352.648 161.963 352.071C162.118 351.494 162.108 350.888 161.934 350.316C161.827 350.042 161.655 349.794 161.43 349.591C161.206 349.389 160.935 349.237 160.638 349.147C160.341 349.057 160.026 349.032 159.717 349.073C159.407 349.114 159.112 349.22 158.854 349.383" fill="white"/>
</g>
<g opacity="0.3">
<path d="M275.572 347.811C270.071 347.34 264.551 348.503 259.798 351.134C255.046 353.765 251.304 357.73 249.105 362.463C247.908 365.127 247.294 368.337 248.564 371.015C249.833 373.692 253.583 375.437 256.292 373.959C257.057 373.467 257.705 372.834 258.196 372.099C258.687 371.363 259.01 370.54 259.144 369.683C259.515 367.991 259.487 366.246 259.8 364.555C260.347 361.906 261.7 359.461 263.699 357.514C265.697 355.566 268.256 354.2 271.066 353.579C272.368 353.402 273.651 353.121 274.902 352.74C275.531 352.538 276.092 352.186 276.53 351.718C276.967 351.251 277.267 350.685 277.397 350.076C277.554 348.85 276.314 347.518 275.044 347.838" fill="white"/>
</g>
<g opacity="0.3">
<path d="M491.811 343.43C486.31 342.961 480.791 344.124 476.039 346.755C471.287 349.385 467.545 353.349 465.344 358.082C464.161 360.746 463.533 363.943 464.816 366.62C466.1 369.297 469.822 371.055 472.531 369.564C473.297 369.077 473.946 368.447 474.437 367.713C474.928 366.979 475.251 366.158 475.383 365.301C475.74 363.61 475.711 361.865 476.039 360.173C476.58 357.523 477.93 355.075 479.926 353.125C481.923 351.176 484.48 349.807 487.29 349.184C488.597 349.007 489.885 348.726 491.14 348.345C491.769 348.143 492.33 347.791 492.768 347.323C493.206 346.856 493.505 346.29 493.636 345.681C493.793 344.469 492.552 343.137 491.283 343.456" fill="white"/>
</g>
<g opacity="0.3">
<path d="M421.024 360.013C407.563 357.203 392.504 364.995 387.941 377.143C373.096 369.763 352.89 373.626 342.309 385.867C335.093 374.385 317.24 370.176 305.047 377.089C305.123 371.825 303.887 366.616 301.437 361.875C298.987 357.134 295.39 352.99 290.93 349.77C286.401 346.63 281.079 344.637 275.482 343.986C269.885 343.335 264.203 344.047 258.988 346.054C253.835 348.197 249.442 351.663 246.318 356.05C243.195 360.437 241.471 365.562 241.348 370.829C234.717 369.324 230.682 371.149 225.12 374.825C219.559 378.501 217.99 382.484 218.803 388.371L443.141 388.638C444.582 375.904 434.514 362.81 421.024 360.013Z" fill="white"/>
</g>
<path d="M432.831 343.097C432.722 343.095 432.616 343.062 432.526 343.003C432.437 342.943 432.37 342.86 432.332 342.764C426.078 326.902 416.333 312.44 403.727 300.313C403.627 300.216 403.572 300.087 403.572 299.953C403.572 299.819 403.627 299.69 403.727 299.594C403.828 299.502 403.963 299.45 404.105 299.45C404.246 299.45 404.381 299.502 404.482 299.594C417.188 311.827 427.01 326.41 433.316 342.404C433.341 342.465 433.353 342.53 433.351 342.596C433.348 342.661 433.332 342.726 433.303 342.785C433.274 342.845 433.232 342.898 433.18 342.943C433.129 342.987 433.068 343.021 433.002 343.043C432.95 343.072 432.892 343.09 432.831 343.097Z" fill="#263238"/>
<path d="M175.88 274.005C175.739 273.995 175.608 273.933 175.514 273.834C175.421 273.734 175.373 273.605 175.381 273.472C175.925 264.691 178.304 256.093 182.383 248.164C182.447 248.048 182.557 247.959 182.69 247.917C182.823 247.874 182.969 247.882 183.096 247.938C183.16 247.965 183.218 248.004 183.266 248.053C183.314 248.101 183.351 248.158 183.375 248.22C183.399 248.282 183.409 248.348 183.406 248.414C183.402 248.48 183.384 248.545 183.353 248.604C179.313 256.428 176.967 264.92 176.451 273.592C176.43 273.716 176.359 273.827 176.253 273.904C176.147 273.981 176.014 274.017 175.88 274.005Z" fill="#263238"/>
<path d="M540.665 499.021C541.892 498.809 543.055 498.35 544.074 497.677C545.093 497.004 545.943 496.133 546.566 495.123C547.189 494.114 547.571 492.99 547.684 491.829C547.797 490.668 547.64 489.498 547.222 488.4C546.804 487.302 546.136 486.301 545.265 485.468C544.393 484.634 543.338 483.986 542.172 483.57C541.007 483.154 539.759 482.979 538.514 483.057C537.269 483.135 536.057 483.465 534.961 484.023L521.015 472.035C521.704 470.874 521.969 469.535 521.771 468.22C521.573 466.906 520.922 465.687 519.917 464.749C518.851 463.586 517.434 462.751 515.851 462.354C514.268 461.957 512.594 462.017 511.047 462.524C509.541 463.077 508.258 464.056 507.378 465.325C506.498 466.593 506.066 468.087 506.142 469.597C504.885 469.822 503.697 470.304 502.664 471.009C501.631 471.714 500.778 472.625 500.168 473.675C499.557 474.726 499.204 475.89 499.134 477.083C499.064 478.277 499.278 479.47 499.762 480.577C500.246 481.683 500.986 482.676 501.93 483.482C502.875 484.289 503.999 484.89 505.222 485.241C506.445 485.593 507.736 485.686 509.003 485.514C510.269 485.343 511.479 484.911 512.545 484.249L526.206 495.984C525.29 497.157 524.855 498.599 524.981 500.046C525.106 501.493 525.784 502.85 526.89 503.87C527.955 505.034 529.373 505.87 530.956 506.267C532.539 506.664 534.214 506.604 535.76 506.094C537.269 505.545 538.555 504.567 539.435 503.297C540.315 502.028 540.746 500.532 540.665 499.021Z" fill="#FDC500"/>
<path opacity="0.1" d="M540.665 499.021C541.892 498.809 543.055 498.35 544.074 497.677C545.093 497.004 545.943 496.133 546.566 495.123C547.189 494.114 547.571 492.99 547.684 491.829C547.797 490.668 547.64 489.498 547.222 488.4C546.804 487.302 546.136 486.301 545.265 485.468C544.393 484.634 543.338 483.986 542.172 483.57C541.007 483.154 539.759 482.979 538.514 483.057C537.269 483.135 536.057 483.465 534.961 484.023L521.015 472.035C521.704 470.874 521.969 469.535 521.771 468.22C521.573 466.906 520.922 465.687 519.917 464.749C518.851 463.586 517.434 462.751 515.851 462.354C514.268 461.957 512.594 462.017 511.047 462.524C509.541 463.077 508.258 464.056 507.378 465.325C506.498 466.593 506.066 468.087 506.142 469.597C504.885 469.822 503.697 470.304 502.664 471.009C501.631 471.714 500.778 472.625 500.168 473.675C499.557 474.726 499.204 475.89 499.134 477.083C499.064 478.277 499.278 479.47 499.762 480.577C500.246 481.683 500.986 482.676 501.93 483.482C502.875 484.289 503.999 484.89 505.222 485.241C506.445 485.593 507.736 485.686 509.003 485.514C510.269 485.343 511.479 484.911 512.545 484.249L526.206 495.984C525.29 497.157 524.855 498.599 524.981 500.046C525.106 501.493 525.784 502.85 526.89 503.87C527.955 505.034 529.373 505.87 530.956 506.267C532.539 506.664 534.214 506.604 535.76 506.094C537.269 505.545 538.555 504.567 539.435 503.297C540.315 502.028 540.746 500.532 540.665 499.021Z" fill="black"/>
<path d="M481.5 500.539C482.423 501.335 483.521 501.934 484.717 502.292C485.913 502.651 487.178 502.761 488.424 502.616C489.671 502.47 490.868 502.073 491.932 501.45C492.997 500.827 493.903 499.995 494.588 499.011C495.272 498.028 495.719 496.916 495.896 495.755C496.072 494.593 495.976 493.41 495.612 492.287C495.249 491.164 494.627 490.128 493.79 489.253C492.954 488.378 491.923 487.684 490.769 487.219L492.452 469.597C493.855 469.401 495.152 468.784 496.147 467.84C497.142 466.896 497.782 465.675 497.971 464.362C498.311 462.865 498.158 461.306 497.532 459.891C496.906 458.477 495.836 457.272 494.463 456.437C493.078 455.651 491.464 455.293 489.849 455.412C488.234 455.532 486.7 456.123 485.465 457.103C484.512 456.3 483.38 455.705 482.15 455.361C480.92 455.018 479.624 454.935 478.356 455.118C477.087 455.301 475.878 455.746 474.817 456.42C473.756 457.094 472.868 457.98 472.219 459.015C471.57 460.049 471.176 461.205 471.066 462.4C470.955 463.594 471.131 464.797 471.58 465.92C472.029 467.043 472.74 468.058 473.662 468.892C474.584 469.727 475.693 470.359 476.909 470.742L475.269 488.058C473.711 488.095 472.219 488.654 471.065 489.631C469.911 490.609 469.171 491.942 468.98 493.386C468.624 494.894 468.769 496.467 469.396 497.895C470.023 499.323 471.102 500.538 472.488 501.378C473.893 502.144 475.521 502.475 477.14 502.324C478.759 502.173 480.285 501.549 481.5 500.539Z" fill="#FDC500"/>
<path opacity="0.1" d="M481.5 500.539C482.423 501.335 483.521 501.934 484.717 502.292C485.913 502.651 487.178 502.761 488.424 502.616C489.671 502.47 490.868 502.073 491.932 501.45C492.997 500.827 493.903 499.995 494.588 499.011C495.272 498.028 495.719 496.916 495.896 495.755C496.072 494.593 495.976 493.41 495.612 492.287C495.249 491.164 494.627 490.128 493.79 489.253C492.954 488.378 491.923 487.684 490.769 487.219L492.452 469.597C493.855 469.401 495.152 468.784 496.147 467.84C497.142 466.896 497.782 465.675 497.971 464.362C498.311 462.865 498.158 461.306 497.532 459.891C496.906 458.477 495.836 457.272 494.463 456.437C493.078 455.651 491.464 455.293 489.849 455.412C488.234 455.532 486.7 456.123 485.465 457.103C484.512 456.3 483.38 455.705 482.15 455.361C480.92 455.018 479.624 454.935 478.356 455.118C477.087 455.301 475.878 455.746 474.817 456.42C473.756 457.094 472.868 457.98 472.219 459.015C471.57 460.049 471.176 461.205 471.066 462.4C470.955 463.594 471.131 464.797 471.58 465.92C472.029 467.043 472.74 468.058 473.662 468.892C474.584 469.727 475.693 470.359 476.909 470.742L475.269 488.058C473.711 488.095 472.219 488.654 471.065 489.631C469.911 490.609 469.171 491.942 468.98 493.386C468.624 494.894 468.769 496.467 469.396 497.895C470.023 499.323 471.102 500.538 472.488 501.378C473.893 502.144 475.521 502.475 477.14 502.324C478.759 502.173 480.285 501.549 481.5 500.539Z" fill="black"/>
<path d="M550.32 505.188C551.731 506.366 553.518 507.08 555.405 507.219C557.293 507.358 559.177 506.915 560.769 505.959C562.362 505.002 563.574 503.584 564.221 501.922C564.868 500.26 564.914 498.445 564.351 496.757C563.966 495.675 563.346 494.68 562.528 493.834C561.711 492.988 560.715 492.31 559.603 491.842L561.285 474.219C562.687 474.023 563.981 473.405 564.974 472.461C565.967 471.517 566.605 470.297 566.79 468.984C567.144 467.477 566.998 465.905 566.371 464.477C565.744 463.049 564.667 461.834 563.282 460.992C561.896 460.211 560.282 459.855 558.668 459.974C557.054 460.094 555.521 460.683 554.284 461.658C553.331 460.855 552.199 460.26 550.969 459.917C549.739 459.574 548.443 459.491 547.175 459.674C545.906 459.857 544.697 460.302 543.636 460.976C542.575 461.65 541.687 462.536 541.038 463.57C540.39 464.605 539.996 465.761 539.885 466.955C539.774 468.15 539.95 469.352 540.399 470.475C540.848 471.598 541.559 472.614 542.481 473.448C543.403 474.282 544.512 474.914 545.728 475.298L544.074 492.614C542.516 492.651 541.024 493.209 539.87 494.187C538.716 495.165 537.976 496.498 537.785 497.942C537.444 499.44 537.597 500.998 538.224 502.413C538.85 503.828 539.92 505.032 541.293 505.868C542.681 506.66 544.303 507.02 545.924 506.898C547.546 506.776 549.085 506.178 550.32 505.188Z" fill="#FDC500"/>
<path opacity="0.1" d="M550.32 505.188C551.731 506.366 553.518 507.08 555.405 507.219C557.293 507.358 559.177 506.915 560.769 505.959C562.362 505.002 563.574 503.584 564.221 501.922C564.868 500.26 564.914 498.445 564.351 496.757C563.966 495.675 563.346 494.68 562.528 493.834C561.711 492.988 560.715 492.31 559.603 491.842L561.285 474.219C562.687 474.023 563.981 473.405 564.974 472.461C565.967 471.517 566.605 470.297 566.79 468.984C567.144 467.477 566.998 465.905 566.371 464.477C565.744 463.049 564.667 461.834 563.282 460.992C561.896 460.211 560.282 459.855 558.668 459.974C557.054 460.094 555.521 460.683 554.284 461.658C553.331 460.855 552.199 460.26 550.969 459.917C549.739 459.574 548.443 459.491 547.175 459.674C545.906 459.857 544.697 460.302 543.636 460.976C542.575 461.65 541.687 462.536 541.038 463.57C540.39 464.605 539.996 465.761 539.885 466.955C539.774 468.15 539.95 469.352 540.399 470.475C540.848 471.598 541.559 472.614 542.481 473.448C543.403 474.282 544.512 474.914 545.728 475.298L544.074 492.614C542.516 492.651 541.024 493.209 539.87 494.187C538.716 495.165 537.976 496.498 537.785 497.942C537.444 499.44 537.597 500.998 538.224 502.413C538.85 503.828 539.92 505.032 541.293 505.868C542.681 506.66 544.303 507.02 545.924 506.898C547.546 506.776 549.085 506.178 550.32 505.188Z" fill="black"/>
<path d="M475.839 500.54C477.724 500.711 479.616 500.301 481.227 499.371C482.838 498.442 484.078 497.045 484.757 495.395C485.437 493.744 485.518 491.931 484.989 490.233C484.46 488.535 483.35 487.046 481.829 485.994C480.833 485.334 479.702 484.875 478.506 484.646C477.311 484.417 476.077 484.422 474.884 484.662L465.116 469.517C466.122 468.583 466.776 467.368 466.979 466.057C467.183 464.745 466.924 463.407 466.242 462.245C465.574 460.848 464.468 459.672 463.071 458.873C461.673 458.075 460.05 457.69 458.414 457.769C456.8 457.902 455.272 458.504 454.044 459.491C452.816 460.478 451.95 461.8 451.569 463.27C450.291 463.146 448.999 463.29 447.788 463.692C446.577 464.093 445.477 464.742 444.568 465.591C443.659 466.439 442.965 467.466 442.534 468.598C442.104 469.729 441.95 470.935 442.082 472.129C442.214 473.323 442.63 474.475 443.298 475.5C443.967 476.525 444.872 477.397 445.948 478.054C447.023 478.711 448.242 479.136 449.515 479.298C450.789 479.459 452.085 479.353 453.309 478.988L462.891 493.84C461.657 494.722 460.804 495.988 460.487 497.409C460.171 498.83 460.411 500.31 461.166 501.579C461.833 502.975 462.939 504.15 464.337 504.947C465.735 505.744 467.359 506.125 468.995 506.041C470.61 505.914 472.142 505.313 473.371 504.326C474.6 503.338 475.464 502.013 475.839 500.54Z" fill="#FDC500"/>
<path opacity="0.3" d="M475.839 500.54C477.724 500.711 479.616 500.301 481.227 499.371C482.838 498.442 484.078 497.045 484.757 495.395C485.437 493.744 485.518 491.931 484.989 490.233C484.46 488.535 483.35 487.046 481.829 485.994C480.833 485.334 479.702 484.875 478.506 484.646C477.311 484.417 476.077 484.422 474.884 484.662L465.116 469.517C466.122 468.583 466.776 467.368 466.979 466.057C467.183 464.745 466.924 463.407 466.242 462.245C465.574 460.848 464.468 459.672 463.071 458.873C461.673 458.075 460.05 457.69 458.414 457.769C456.8 457.902 455.272 458.504 454.044 459.491C452.816 460.478 451.95 461.8 451.569 463.27C450.291 463.146 448.999 463.29 447.788 463.692C446.577 464.093 445.477 464.742 444.568 465.591C443.659 466.439 442.965 467.466 442.534 468.598C442.104 469.729 441.95 470.935 442.082 472.129C442.214 473.323 442.63 474.475 443.298 475.5C443.967 476.525 444.872 477.397 445.948 478.054C447.023 478.711 448.242 479.136 449.515 479.298C450.789 479.459 452.085 479.353 453.309 478.988L462.891 493.84C461.657 494.722 460.804 495.988 460.487 497.409C460.171 498.83 460.411 500.31 461.166 501.579C461.833 502.975 462.939 504.15 464.337 504.947C465.735 505.744 467.359 506.125 468.995 506.041C470.61 505.914 472.142 505.313 473.371 504.326C474.6 503.338 475.464 502.013 475.839 500.54Z" fill="black"/>
<path d="M483.896 483.064C482.952 483.825 482.195 484.769 481.679 485.829C481.162 486.89 480.898 488.043 480.905 489.208C480.912 490.373 481.189 491.523 481.717 492.579C482.245 493.635 483.013 494.571 483.966 495.322C484.919 496.074 486.035 496.624 487.238 496.934C488.44 497.244 489.701 497.306 490.932 497.117C492.163 496.928 493.335 496.492 494.368 495.839C495.401 495.186 496.27 494.331 496.916 493.334L515.454 497.117C515.485 498.442 515.978 499.723 516.858 500.763C517.738 501.804 518.957 502.548 520.331 502.884C521.877 503.39 523.552 503.445 525.133 503.043C526.714 502.641 528.127 501.801 529.186 500.633C530.194 499.449 530.778 497.999 530.855 496.488C530.932 494.978 530.497 493.482 529.614 492.215C530.594 491.435 531.376 490.46 531.901 489.361C532.426 488.263 532.682 487.068 532.65 485.866C532.617 484.663 532.297 483.482 531.713 482.41C531.129 481.338 530.296 480.401 529.275 479.668C528.253 478.935 527.069 478.425 525.81 478.174C524.55 477.924 523.246 477.94 521.994 478.221C520.741 478.501 519.572 479.04 518.571 479.798C517.57 480.555 516.763 481.512 516.209 482.598L498.028 478.895C498.184 477.451 497.783 476.002 496.896 474.811C496.01 473.619 494.697 472.762 493.194 472.395C491.645 471.888 489.968 471.832 488.385 472.234C486.801 472.636 485.385 473.477 484.324 474.646C483.316 475.829 482.732 477.279 482.655 478.79C482.579 480.301 483.013 481.796 483.896 483.064Z" fill="#FDC500"/>
<path opacity="0.3" d="M483.896 483.064C482.952 483.825 482.195 484.769 481.679 485.829C481.162 486.89 480.898 488.043 480.905 489.208C480.912 490.373 481.189 491.523 481.717 492.579C482.245 493.635 483.013 494.571 483.966 495.322C484.919 496.074 486.035 496.624 487.238 496.934C488.44 497.244 489.701 497.306 490.932 497.117C492.163 496.928 493.335 496.492 494.368 495.839C495.401 495.186 496.27 494.331 496.916 493.334L515.454 497.117C515.485 498.442 515.978 499.723 516.858 500.763C517.738 501.804 518.957 502.548 520.331 502.884C521.877 503.39 523.552 503.445 525.133 503.043C526.714 502.641 528.127 501.801 529.186 500.633C530.194 499.449 530.778 497.999 530.855 496.488C530.932 494.978 530.497 493.482 529.614 492.215C530.594 491.435 531.376 490.46 531.901 489.361C532.426 488.263 532.682 487.068 532.65 485.866C532.617 484.663 532.297 483.482 531.713 482.41C531.129 481.338 530.296 480.401 529.275 479.668C528.253 478.935 527.069 478.425 525.81 478.174C524.55 477.924 523.246 477.94 521.994 478.221C520.741 478.501 519.572 479.04 518.571 479.798C517.57 480.555 516.763 481.512 516.209 482.598L498.028 478.895C498.184 477.451 497.783 476.002 496.896 474.811C496.01 473.619 494.697 472.762 493.194 472.395C491.645 471.888 489.968 471.832 488.385 472.234C486.801 472.636 485.385 473.477 484.324 474.646C483.316 475.829 482.732 477.279 482.655 478.79C482.579 480.301 483.013 481.796 483.896 483.064Z" fill="black"/>
<path d="M536.202 496.344C535.907 497.477 535.879 498.656 536.12 499.8C536.361 500.945 536.864 502.026 537.596 502.971C538.328 503.916 539.271 504.701 540.359 505.272C541.447 505.843 542.655 506.187 543.9 506.28C545.144 506.372 546.395 506.212 547.566 505.809C548.738 505.406 549.802 504.77 550.685 503.946C551.567 503.122 552.248 502.128 552.68 501.034C553.112 499.94 553.284 498.772 553.186 497.609L570.569 490.616C571.42 491.677 572.619 492.45 573.982 492.817C575.346 493.185 576.801 493.128 578.127 492.654C579.7 492.219 581.095 491.351 582.131 490.163C583.167 488.974 583.794 487.521 583.93 485.994C584.01 484.482 583.577 482.985 582.694 481.715C581.811 480.446 580.522 479.468 579.011 478.921C579.318 477.754 579.342 476.537 579.082 475.36C578.821 474.182 578.282 473.074 577.505 472.116C576.727 471.159 575.73 470.375 574.587 469.823C573.443 469.271 572.182 468.965 570.896 468.926C569.61 468.887 568.33 469.118 567.151 469.6C565.973 470.083 564.924 470.805 564.082 471.714C563.24 472.624 562.627 473.697 562.286 474.857C561.945 476.016 561.886 477.232 562.113 478.415L545.086 485.275C544.316 484.012 543.087 483.049 541.622 482.56C540.157 482.071 538.553 482.089 537.1 482.611C535.526 483.044 534.13 483.912 533.094 485.101C532.058 486.29 531.431 487.743 531.297 489.271C531.214 490.782 531.644 492.279 532.524 493.549C533.405 494.819 534.692 495.797 536.202 496.344Z" fill="#FDC500"/>
<path opacity="0.3" d="M536.202 496.344C535.907 497.477 535.879 498.656 536.12 499.8C536.361 500.945 536.864 502.026 537.596 502.971C538.328 503.916 539.271 504.701 540.359 505.272C541.447 505.843 542.655 506.187 543.9 506.28C545.144 506.372 546.395 506.212 547.566 505.809C548.738 505.406 549.802 504.77 550.685 503.946C551.567 503.122 552.248 502.128 552.68 501.034C553.112 499.94 553.284 498.772 553.186 497.609L570.569 490.616C571.42 491.677 572.619 492.45 573.982 492.817C575.346 493.185 576.801 493.128 578.127 492.654C579.7 492.219 581.095 491.351 582.131 490.163C583.167 488.974 583.794 487.521 583.93 485.994C584.01 484.482 583.577 482.985 582.694 481.715C581.811 480.446 580.522 479.468 579.011 478.921C579.318 477.754 579.342 476.537 579.082 475.36C578.821 474.182 578.282 473.074 577.505 472.116C576.727 471.159 575.73 470.375 574.587 469.823C573.443 469.271 572.182 468.965 570.896 468.926C569.61 468.887 568.33 469.118 567.151 469.6C565.973 470.083 564.924 470.805 564.082 471.714C563.24 472.624 562.627 473.697 562.286 474.857C561.945 476.016 561.886 477.232 562.113 478.415L545.086 485.275C544.316 484.012 543.087 483.049 541.622 482.56C540.157 482.071 538.553 482.089 537.1 482.611C535.526 483.044 534.13 483.912 533.094 485.101C532.058 486.29 531.431 487.743 531.297 489.271C531.214 490.782 531.644 492.279 532.524 493.549C533.405 494.819 534.692 495.797 536.202 496.344Z" fill="black"/>
<path d="M487.718 487.152C488.356 486.142 488.75 485.013 488.873 483.846C488.996 482.678 488.846 481.5 488.432 480.392C488.018 479.285 487.35 478.275 486.476 477.433C485.601 476.591 484.54 475.937 483.368 475.517C482.195 475.097 480.938 474.92 479.685 475C478.432 475.08 477.213 475.414 476.112 475.979C475.011 476.544 474.056 477.326 473.312 478.271C472.568 479.216 472.053 480.301 471.804 481.451L453.009 483.582C452.522 482.332 451.61 481.265 450.413 480.543C449.216 479.822 447.799 479.486 446.378 479.586C444.739 479.582 443.136 480.044 441.784 480.91C440.432 481.775 439.393 483.005 438.806 484.435C438.272 485.862 438.232 487.409 438.693 488.858C439.154 490.307 440.091 491.584 441.373 492.507C440.72 493.545 440.324 494.707 440.214 495.906C440.104 497.106 440.282 498.313 440.737 499.44C441.191 500.567 441.909 501.585 442.839 502.419C443.769 503.253 444.887 503.881 446.111 504.26C447.335 504.638 448.634 504.755 449.912 504.603C451.191 504.452 452.417 504.035 453.501 503.383C454.585 502.731 455.499 501.861 456.176 500.837C456.854 499.812 457.277 498.659 457.415 497.462L475.854 495.384C476.213 496.797 477.103 498.043 478.361 498.895C479.619 499.748 481.163 500.152 482.713 500.033C484.353 500.03 485.953 499.565 487.305 498.697C488.656 497.829 489.695 496.6 490.285 495.171C490.806 493.751 490.839 492.215 490.378 490.777C489.918 489.339 488.988 488.072 487.718 487.152Z" fill="#FDC500"/>
<path d="M574.176 478.881C573.963 477.745 573.492 476.665 572.794 475.714C572.096 474.763 571.187 473.963 570.13 473.368C569.072 472.774 567.891 472.397 566.664 472.266C565.438 472.134 564.196 472.249 563.022 472.605C561.847 472.96 560.768 473.546 559.857 474.324C558.946 475.102 558.224 476.053 557.741 477.114C557.257 478.175 557.023 479.321 557.054 480.473C557.085 481.626 557.38 482.759 557.92 483.796L544.687 496.436C543.467 495.761 542.046 495.474 540.637 495.618C539.227 495.762 537.906 496.33 536.872 497.236C535.593 498.195 534.654 499.493 534.178 500.96C533.702 502.426 533.712 503.993 534.205 505.454C534.751 506.879 535.761 508.108 537.094 508.968C538.427 509.828 540.015 510.276 541.635 510.249C541.829 511.433 542.303 512.561 543.023 513.552C543.742 514.543 544.689 515.372 545.795 515.978C546.9 516.584 548.136 516.952 549.414 517.056C550.691 517.16 551.976 516.997 553.177 516.579C554.379 516.16 555.465 515.497 556.357 514.637C557.249 513.778 557.925 512.743 558.336 511.609C558.746 510.474 558.881 509.269 558.73 508.08C558.579 506.891 558.146 505.748 557.463 504.735L570.44 492.334C571.669 493.224 573.198 493.675 574.752 493.604C576.305 493.533 577.78 492.945 578.911 491.948C580.187 490.986 581.123 489.688 581.597 488.221C582.07 486.755 582.058 485.189 581.563 483.729C581.033 482.299 580.034 481.06 578.708 480.19C577.382 479.32 575.797 478.862 574.176 478.881Z" fill="#FDC500"/>
<path d="M513.614 505.507C513.99 506.626 514.622 507.655 515.467 508.523C516.312 509.39 517.349 510.075 518.506 510.53C519.663 510.985 520.912 511.199 522.167 511.158C523.421 511.116 524.651 510.82 525.77 510.289C526.89 509.758 527.872 509.006 528.649 508.085C529.425 507.164 529.978 506.095 530.268 504.954C530.557 503.813 530.578 502.627 530.327 501.478C530.076 500.329 529.56 499.245 528.815 498.301L539.724 483.796C541.042 484.283 542.492 484.356 543.858 484.005C545.224 483.655 546.431 482.898 547.296 481.851C548.402 480.717 549.112 479.295 549.331 477.774C549.55 476.254 549.268 474.707 548.523 473.34C547.743 472.015 546.538 470.951 545.077 470.299C543.617 469.647 541.974 469.438 540.38 469.703C539.985 468.565 539.323 467.524 538.443 466.654C537.564 465.785 536.487 465.109 535.293 464.677C534.099 464.244 532.816 464.066 531.539 464.154C530.262 464.242 529.021 464.594 527.908 465.186C526.795 465.778 525.836 466.594 525.103 467.574C524.369 468.555 523.878 469.676 523.666 470.856C523.454 472.036 523.526 473.245 523.876 474.396C524.227 475.547 524.847 476.61 525.693 477.509L514.983 491.788C513.62 491.092 512.036 490.874 510.516 491.175C508.996 491.475 507.642 492.274 506.698 493.426C505.598 494.564 504.894 495.987 504.677 497.506C504.461 499.026 504.743 500.571 505.486 501.938C506.271 503.252 507.477 504.304 508.935 504.944C510.393 505.585 512.03 505.782 513.614 505.507Z" fill="#FDC500"/>
<path d="M414.122 534.319L426.314 500.846C427.159 498.52 428.761 496.499 430.896 495.066C433.031 493.633 435.592 492.859 438.221 492.854H580.736C583.057 492.854 585.317 493.547 587.187 494.831C589.057 496.115 590.439 497.924 591.131 499.993L602.539 534.292L414.122 534.319Z" fill="#263238"/>
<path opacity="0.4" d="M414.122 534.319L426.314 500.846C427.159 498.52 428.761 496.499 430.896 495.066C433.031 493.633 435.592 492.859 438.221 492.854H580.736C583.057 492.854 585.317 493.547 587.187 494.831C589.057 496.115 590.439 497.924 591.131 499.993L602.539 534.292L414.122 534.319Z" fill="white"/>
<path opacity="0.4" d="M487.803 492.88L449.43 534.318H471.034L510.42 492.88H487.803Z" fill="white"/>
<path opacity="0.4" d="M517.35 492.88L478.977 534.318H484.41L521.386 492.88H517.35Z" fill="white"/>
</g>
<defs>
<clipPath id="clip0_819_2">
<rect width="603" height="555" fill="white"/>
</clipPath>
</defs>
</svg>
